<?xml version="1.0" standalone="no"?>
<!DOCTYPE svg PUBLIC "-//W3C//DTD SVG 20010904//EN"
 "http://www.w3.org/TR/2001/REC-SVG-20010904/DTD/svg10.dtd">
<svg version="1.0" xmlns="http://www.w3.org/2000/svg"
 width="872.000000pt" height="880.000000pt" viewBox="0 0 872.000000 880.000000"
 preserveAspectRatio="xMidYMid meet">
<metadata>
Created by potrace 1.16, written by Peter Selinger 2001-2019
</metadata>
<g transform="translate(0.000000,880.000000) scale(0.100000,-0.100000)"
fill="#000000" stroke="none">
<path d="M4610 8175 c-8 -2 -49 -9 -90 -15 -263 -42 -520 -178 -725 -384 -162
-163 -272 -343 -338 -551 -34 -108 -43 -161 -67 -365 -97 -843 -336 -1295
-894 -1696 -62 -44 -158 -107 -214 -140 -75 -44 -101 -64 -102 -79 0 -13 -33
-50 -90 -100 -334 -294 -575 -688 -656 -1075 -22 -104 -25 -355 -6 -445 70
-322 259 -567 552 -715 617 -311 1536 -149 2253 397 125 96 331 295 418 403
l64 81 63 -6 c210 -22 426 -137 646 -346 49 -46 153 -156 231 -244 168 -189
266 -284 367 -355 145 -103 364 -196 543 -231 106 -21 418 -19 522 4 266 57
485 173 678 359 206 198 335 432 397 721 31 145 31 389 0 534 -77 358 -279
665 -568 862 -43 30 -133 97 -199 150 -583 459 -989 978 -1163 1482 -54 156
-80 283 -97 469 -22 242 -75 418 -176 595 -211 368 -564 612 -984 680 -77 13
-318 19 -365 10z m405 -1820 c170 -35 350 -116 485 -216 89 -66 220 -201 277
-284 167 -247 236 -557 188 -850 -18 -112 -44 -194 -97 -308 l-42 -88 17 -89
c23 -118 59 -228 107 -322 21 -43 38 -78 37 -79 -1 -1 -166 -5 -367 -9 l-365
-7 -90 -31 c-423 -145 -918 -33 -1235 280 -220 217 -335 469 -356 778 -22 324
122 683 364 912 201 190 429 294 722 332 65 8 278 -3 355 -19z"/>
</g>
</svg>
